# xmcd CD database file
#
# Track frame offsets:
#	150
#	15992
#	30702
#	46649
#	55884
#	78858
#	97833
#	113553
#	126804
#	140123
#	157022
#	171987
#	183666
#	193966
#	208812
#	219024
#	230130
#	243523
#	260649
#	268537
#
# Disc length: 3831 seconds
#
# Revision: 0
# Processed by: cddbd v1.5.2PL0 Copyright (c) Steve Scherf et al.
# Submitted via: CDex 1.51
#
DISCID=1a0ef514
DTITLE=Lambert, Hendricks and Ross - Seven Classic Albums (Remaster)
DYEAR=2014
DGENRE=Jazz
TTITLE0=Airegin (1958, The Swingers)
TTITLE1=Babe's Blues (1958, The Swingers)
TTITLE2=Dark Cloud (1958, The Swingers)
TTITLE3=Jackie (1958, The Swingers)
TTITLE4=Swingin' Till The Girls Come Home (1958, The Swingers)
TTITLE5=Four (1958, The Swingers)
TTITLE6=Little Niles (1958, The Swingers)
TTITLE7=Where (1958, The Swingers)
TTITLE8=Now's The Time (1958, The Swingers)
TTITLE9=Love Makes The World Go 'Round (1958, The Swingers)
TTITLE10=Charleston Alley (1960, Lambert, Hendricks and Ross - The Hottest New Group in Jazz)
TTITLE11=Moanin' (1960, Lambert, Hendricks and Ross - The Hottest New Group in Jazz)
TTITLE12=Twisted (1960, Lambert, Hendricks and Ross - The Hottest New Group in Jazz)
TTITLE13=Bijou (1960, Lambert, Hendricks and Ross - The Hottest New Group in Jazz)
TTITLE14=Cloudburst (1960, Lambert, Hendricks and Ross - The Hottest New Group in Jazz)
TTITLE15=Centerpiece (1960, Lambert, Hendricks and Ross - The Hottest New Group in Jazz)
TTITLE16=Gimme That Wine (1960, Lambert, Hendricks and Ross - The Hottest New Group in Jazz)
TTITLE17=Sermonette (1960, Lambert, Hendricks and Ross - The Hottest New Group in Jazz)
TTITLE18=Summertime (1960, Lambert, Hendricks and Ross - The Hottest New Group in Jazz)
TTITLE19=Everybody's Boppin' (1960, Lambert, Hendricks and Ross - The Hottest New Group in Jazz)
EXTD=YEAR: 2014
EXTT0=
EXTT1=
EXTT2=
EXTT3=
EXTT4=
EXTT5=
EXTT6=
EXTT7=
EXTT8=
EXTT9=
EXTT10=
EXTT11=
EXTT12=
EXTT13=
EXTT14=
EXTT15=
EXTT16=
EXTT17=
EXTT18=
EXTT19=
PLAYORDER=
